{"title":"PT 109(1963)MPEG-4[DaScubaDude]","uid":15059376,"size":1407081178,"categoryP":"video","categoryS":"movies","magnet":"?xt=urn:btih:a7dd00f3d3c0277cbe94e2d0fa6131d3d6e04a90&amp;dn=PT+109%281963%29MPEG-4%5BDaScubaDude%5D&amp;tr=udp%3A%2F%2Ftracker.leechers-paradise.org%3A6969&amp;tr=udp%3A%2F%2Fzer0day.ch%3A1337&amp;tr=udp%3A%2F%2Fopen.demonii.com%3A1337&amp;tr=udp%3A%2F%2Ftracker.coppersurfer.tk%3A6969&amp;tr=udp%3A%2F%2Fexodus.desync.com%3A6969","seeders":1,"leechers":0,"uploader":"dascuba","files":1,"time":1466749463,"description":"PT 109 (1963)\r\nApproved | 2h 20min | Biography, Drama, War | 19 June 1963 (USA)\r\nDuring WW2, Lieut. John F. Kennedy takes command of PT 109 to fight the Japanese in the Solomon Islands.\r\nDirector: Leslie H. Martinson\r\nWriters: Richard L. Breen (screenplay), Howard Sheehan (adaptation) |\r\nStars: Cliff Robertson, Robert Culp, Ty Hardin |\r\n\r\nGeneral\r\nComplete name                            : PT109883316231982_Title3.mp4\r\nFormat                                   : MPEG-4\r\nFormat profile                           : Base Media\r\nCodec ID                                 : isom (isom/iso2/avc1/mp41)\r\nFile size                                : 1.31 GiB\r\nDuration                                 : 2h 20mn\r\nOverall bit rate                         : 1 339 Kbps\r\nMovie name                               : 883316231982\r\nWriting application                      : Lavf54.6.100\r\n\r\nVideo\r\nID                                       : 1\r\nFormat                                   : AVC\r\nFormat/Info                              : Advanced Video Codec\r\nFormat profile                           :   \r\nFormat settings, CABAC                   : No\r\nFormat settings, ReFrames                : 6 frames\r\nFormat settings, GOP                     : M=1, N=60\r\nCodec ID                                 : avc1\r\nCodec ID/Info                            : Advanced Video Coding\r\nDuration                                 : 2h 20mn\r\nBit rate                                 : 1 202 Kbps\r\nWidth                                    : 720 pixels\r\nHeight                                   : 404 pixels\r\nDisplay aspect ratio                     : 16:9\r\nFrame rate mode                          : Constant\r\nFrame rate                               : 29.970 (30000/1001) fps\r\nColor space                              : YUV\r\nChroma subsampling                       : 4:2:0\r\nBit depth                                : 8 bits\r\nScan type                                : Progressive\r\nBits/(Pixel*Frame)                       : 0.138\r\nStream size                              : 1.18 GiB (90%)\r\n\r\nAudio\r\nID                                       : 2\r\nFormat                                   : AAC\r\nFormat/Info                              : Advanced Audio Codec\r\nFormat profile                           : LC\r\nCodec ID                                 : 40\r\nDuration                                 : 2h 20mn\r\nBit rate mode                            : Constant\r\nBit rate                                 : 132 Kbps\r\nChannel(s)                               : 2 channels\r\nChannel positions                        : Front: L R\r\nSampling rate                            : 44.1 KHz\r\nFrame rate                               : 43.066 fps (1024 spf)\r\nCompression mode                         : Lossy\r\nStream size                              : 131 MiB (10%)\r\nDefault                                  : Yes\r\nAlternate group                          : 1","torrent":{"xt":"urn:btih:a7dd00f3d3c0277cbe94e2d0fa6131d3d6e04a90","amp;dn":"PT+109%281963%29MPEG-4%5BDaScubaDude%5D","amp;tr":["udp%3A%2F%2Ftracker.leechers-paradise.org%3A6969","udp%3A%2F%2Fzer0day.ch%3A1337","udp%3A%2F%2Fopen.demonii.com%3A1337","udp%3A%2F%2Ftracker.coppersurfer.tk%3A6969","udp%3A%2F%2Fexodus.desync.com%3A6969"],"infoHash":"a7dd00f3d3c0277cbe94e2d0fa6131d3d6e04a90","infoHashBuffer":{"type":"Buffer","data":[167,221,0,243,211,192,39,124,190,148,226,208,250,97,49,211,214,224,74,144]},"announce":[],"urlList":[]}}